<svg width="202" height="202" viewBox="0 0 202 202" fill="none" xmlns="http://www.w3.org/2000/svg">
<path fill-rule="evenodd" clip-rule="evenodd" d="M48.6979 0C21.8028 0 0 21.8028 0 48.6979V153.051C0 179.946 21.8028 201.748 48.6979 201.748H153.051C179.946 201.748 201.748 179.946 201.748 153.051V48.6979C201.748 21.8028 179.946 0 153.051 0H48.6979ZM131.587 179.693C132.568 180.462 133.765 180.878 134.995 180.877C135.424 180.865 135.851 180.804 136.268 180.696C137.689 180.354 138.928 179.454 139.724 178.185C140.52 176.916 140.812 175.377 140.538 173.89L127.696 103.937H175.235C176.682 103.936 178.074 103.358 179.122 102.324C180.171 101.289 180.797 99.8758 180.87 98.3761C180.944 96.8767 180.46 95.4053 179.518 94.2656C178.576 93.1259 177.249 92.4048 175.81 92.2511L137.828 88.2246L152.087 64.2465C152.81 63.0334 153.081 61.5883 152.851 60.1822C152.62 58.7761 151.903 57.5055 150.834 56.6088C149.763 55.7118 148.413 55.2523 147.039 55.3171C145.664 55.3818 144.359 55.9664 143.371 56.9604L123.364 77.0078L108.48 31.7892C108.02 30.3962 107.073 29.2336 105.825 28.5329C104.577 27.8322 103.121 27.6447 101.746 28.0077C100.371 28.3698 99.1788 29.2562 98.4063 30.4902C97.6338 31.7242 97.338 33.215 97.5779 34.6653L105.708 83.953L33.7792 79.9478C32.3189 79.8646 30.8846 80.3736 29.7793 81.3675C28.6741 82.3613 27.9844 83.7621 27.8561 85.2739C27.7076 86.7898 28.1352 88.306 29.0479 89.4998C29.9605 90.6935 31.286 91.4704 32.7424 91.6652L95.9355 100.283L39.0966 145.203C37.9496 146.114 37.1819 147.446 36.951 148.925C36.72 150.405 37.0433 151.92 37.8545 153.16C38.6659 154.398 39.9036 155.266 41.313 155.585C42.7223 155.904 44.1959 155.65 45.4303 154.875L112.647 112.799L129.554 176.616C129.891 177.844 130.605 178.924 131.587 179.693Z" fill="#222222"/>
</svg>
