<svg width="202" height="202" viewBox="0 0 202 202" fill="none" xmlns="http://www.w3.org/2000/svg">
<rect width="201.748" height="201.748" rx="48.6979" fill="#222222"/>
<path d="M134.995 180.878C133.765 180.878 132.568 180.462 131.587 179.693C130.605 178.924 129.891 177.844 129.554 176.617L112.647 112.8L45.4302 154.876C44.1958 155.65 42.7223 155.904 41.3129 155.585C39.9036 155.266 38.6658 154.398 37.8545 153.161C37.0433 151.921 36.72 150.405 36.9509 148.926C37.1819 147.446 37.9496 146.114 39.0965 145.203L95.9354 100.283L32.7423 91.6656C31.286 91.4708 29.9604 90.6938 29.0478 89.5001C28.1352 88.3064 27.7076 86.7902 27.856 85.2742C27.9844 83.7625 28.674 82.3617 29.7793 81.3678C30.8845 80.374 32.3188 79.8649 33.7791 79.9481L105.708 83.9534L97.5779 34.6657C97.338 33.2154 97.6338 31.7245 98.4062 30.4905C99.1787 29.2566 100.371 28.3701 101.746 28.008C103.121 27.645 104.577 27.8325 105.825 28.5333C107.073 29.234 108.02 30.3965 108.48 31.7896L123.364 77.0081L143.371 56.9607C144.359 55.9667 145.664 55.3822 147.039 55.3174C148.413 55.2527 149.763 55.7121 150.834 56.6092C151.903 57.5059 152.62 58.7764 152.851 60.1825C153.081 61.5886 152.81 63.0337 152.087 64.2468L137.828 88.2249L175.81 92.2514C177.249 92.4051 178.576 93.1262 179.518 94.2659C180.46 95.4057 180.944 96.8771 180.87 98.3764C180.797 99.8762 180.171 101.289 179.122 102.324C178.073 103.359 176.682 103.936 175.235 103.937H127.696L140.538 173.89C140.812 175.377 140.52 176.917 139.724 178.186C138.928 179.455 137.689 180.355 136.268 180.697C135.851 180.804 135.424 180.865 134.995 180.878V180.878Z" fill="white"/>
</svg>
