<svg width="432" height="432" viewBox="0 0 432 432" fill="none" xmlns="http://www.w3.org/2000/svg">
<rect width="432" height="432" fill="#222222"/>
<path d="M289.062 387.31C286.428 387.311 283.866 386.42 281.764 384.774C279.662 383.127 278.134 380.815 277.412 378.186L241.21 241.536L97.279 331.632C94.6359 333.291 91.4805 333.835 88.4627 333.151C85.4449 332.468 82.7945 330.61 81.0572 327.96C79.3202 325.305 78.6279 322.06 79.1225 318.892C79.617 315.724 81.2609 312.872 83.7169 310.922L205.425 214.735L70.1107 196.282C66.9923 195.865 64.1538 194.201 62.1997 191.645C60.2455 189.089 59.3299 185.842 59.6478 182.596C59.9226 179.359 61.3993 176.36 63.766 174.232C66.1327 172.103 69.2039 171.013 72.3308 171.192L226.351 179.768L208.942 74.2291C208.428 71.1236 209.061 67.9313 210.716 65.289C212.37 62.6467 214.923 60.7486 217.866 59.9733C220.81 59.196 223.929 59.5975 226.601 61.0979C229.273 62.5983 231.302 65.0877 232.285 68.0706L264.158 164.896L306.998 121.969C309.114 119.841 311.907 118.589 314.851 118.45C317.795 118.312 320.686 119.296 322.978 121.216C325.267 123.136 326.803 125.857 327.296 128.868C327.79 131.879 327.208 134.973 325.66 137.571L295.129 188.914L376.458 197.536C379.54 197.865 382.382 199.409 384.398 201.85C386.415 204.29 387.452 207.441 387.295 210.652C387.137 213.863 385.797 216.889 383.551 219.105C381.305 221.32 378.326 222.557 375.227 222.558H273.434L300.932 372.347C301.518 375.532 300.893 378.829 299.189 381.546C297.484 384.263 294.832 386.19 291.788 386.922C290.895 387.153 289.981 387.283 289.062 387.31V387.31Z" fill="white"/>
</svg>
